<svg width="270px" height="45px" xmlns="http://www.w3.org/2000/svg" viewBox="-54.49689331054685 28.1 608.9937866210937 93.8" style="background: rgba(0, 0, 0, 0);" preserveAspectRatio="xMidYMid"><defs><filter id="editing-metal-beveled"><feGaussianBlur stdDeviation="4" in="SourceAlpha" result="blur"></feGaussianBlur><feSpecularLighting surfaceScale="5" specularConstant="0.8" specularExponent="7.5" lighting-color="#ffffff" in="blur" result="specular"><fePointLight x="-250" y="-50" z="300"></fePointLight></feSpecularLighting><feComposite operator="in" in="specular" in2="SourceAlpha" result="comp"></feComposite><feComposite in="SourceGraphic" in2="comp" operator="arithmetic" k1="0" k2="1" k3="1" k4="0"></feComposite></filter></defs><g filter="url(#editing-metal-beveled)"><g transform="translate(33.549986720085144, 95.59000205993652)"><path d="M34.02-1.03L34.02-1.03L34.02-1.03Q29.56 0.90 24.19 0.90L24.19 0.90L24.19 0.90Q18.81 0.90 14.40-0.52L14.40-0.52L14.40-0.52Q9.99-1.93 7.25-4.32L7.25-4.32L7.25-4.32Q4.50-6.71 3.06-9.65L3.06-9.65L3.06-9.65Q1.62-12.60 1.62-15.79L1.62-15.79L1.62-15.79Q1.62-18.99 3.08-21.94L3.08-21.94L3.08-21.94Q4.54-24.88 7.27-27.27L7.27-27.27L7.27-27.27Q9.99-29.65 14.40-31.09L14.40-31.09L14.40-31.09Q18.81-32.53 24.07-32.53L24.07-32.53L24.07-32.53Q29.34-32.53 33.39-31.23L33.39-31.23L33.39-31.23Q37.44-29.92 39.91-27.68L39.91-27.68L39.91-27.68Q44.95-23.09 44.95-16.79L44.95-16.79L44.95-16.79Q44.95-11.52 41.53-6.93L41.53-6.93L45.81-6.52L45.81-6.52Q46.84-6.39 46.84-5.17L46.84-5.17L46.84-5.17Q46.84-3.96 46.33-2.29L46.33-2.29L46.33-2.29Q45.81-0.63 45.34 0.18L45.34 0.18L45.34 0.18Q44.86 0.99 43.60 0.99L43.60 0.99L43.60 0.99Q42.07 0.99 34.02-1.03ZM33.16-16.58L33.16-16.58L33.16-16.58Q33.16-18.72 31.63-20.32L31.63-20.32L31.63-20.32Q30.11-21.91 26.98-21.91L26.98-21.91L26.98-21.91Q23.85-21.91 22.00-20.25L22.00-20.25L22.00-20.25Q20.16-18.59 20.16-16.20L20.16-16.20L20.16-16.20Q20.16-13.81 22.09-12.38L22.09-12.38L22.09-12.38Q24.03-10.93 26.75-10.93L26.75-10.93L26.75-10.93Q29.47-10.93 31.32-12.69L31.32-12.69L31.32-12.69Q33.16-14.45 33.16-16.58ZM51.88-25.96L51.88-25.96L51.88-29.29L51.88-29.29Q51.88-30.46 52.45-30.94L52.45-30.94L52.45-30.94Q53.01-31.41 55.46-31.48L55.46-31.48L55.46-31.48Q57.91-31.54 62.86-31.59L62.86-31.59L62.86-31.59Q67.81-31.63 73.80-31.63L73.80-31.63L73.80-31.63Q73.80-31.63 81.90-31.63L81.90-31.63L81.90-31.63Q82.98-31.63 83.90-31.05L83.90-31.05L83.90-31.05Q84.82-30.46 84.82-29.56L84.82-29.56L84.82-25.88L84.82-25.88Q84.82-25.15 84.60-24.75L84.60-24.75L84.60-24.75Q84.60-24.75 84.33-24.21L84.33-24.21L84.33-24.21Q84.28-24.07 84.01-23.67L84.01-23.67L83.66-23.13L83.66-23.13Q79.47-16.52 73.98-8.87L73.98-8.87L73.98-8.87Q73.44-8.10 73.60-7.58L73.60-7.58L73.60-7.58Q73.75-7.06 74.43-7.06L74.43-7.06L83.03-7.06L83.03-7.06Q83.97-7.06 84.49-6.41L84.49-6.41L84.49-6.41Q85.00-5.76 85.00-5.00L85.00-5.00L85.00-2.38L85.00-2.38Q85.00-0.04 83.03 0.04L83.03 0.04L83.03 0.04Q77.13 0.18 68.44 0.18L68.44 0.18L68.44 0.18Q59.76 0.18 54.59 0L54.59 0L54.59 0Q52.29-0.09 51.23-0.61L51.23-0.61L51.23-0.61Q50.17-1.13 50.17-2.61L50.17-2.61L50.17-6.08L50.17-6.08Q50.17-7.56 51.07-9.04L51.07-9.04L51.07-9.04Q55.75-16.47 60.84-23.22L60.84-23.22L60.84-23.22Q61.24-23.80 60.97-24.21L60.97-24.21L60.97-24.21Q60.70-24.61 59.94-24.61L59.94-24.61L54-24.61L54-24.61Q53.10-24.61 52.49-25.00L52.49-25.00L52.49-25.00Q51.88-25.38 51.88-25.96ZM104.94-29.16L104.94-29.16L104.94-29.16Q106.60-27.09 108.76-23.83L108.76-23.83L108.76-23.83Q110.92-20.56 111.78-19.48L111.78-19.48L111.78-19.48Q112.63-18.40 113.15-18.40L113.15-18.40L113.15-18.40Q113.67-18.40 114.07-18.99L114.07-18.99L114.07-18.99Q114.48-19.57 117.04-23.49L117.04-23.49L117.04-23.49Q119.61-27.40 121.27-29.45L121.27-29.45L121.27-29.45Q122.94-31.50 123.93-31.54L123.93-31.54L123.93-31.54Q124.92-31.59 126.49-31.59L126.49-31.59L126.49-31.59Q128.07-31.59 130.19-31.50L130.19-31.50L130.19-31.50Q132.30-31.41 133.00-30.40L133.00-30.40L133.00-30.40Q133.69-29.38 133.83-27.54L133.83-27.54L133.83-27.54Q134.10-22.81 134.10-15.01L134.10-15.01L134.10-15.01Q134.10-7.20 133.69-2.70L133.69-2.70L133.69-2.70Q133.60-1.62 132.88-0.77L132.88-0.77L132.88-0.77Q132.16 0.09 130.91 0.09L130.91 0.09L130.91 0.09Q128.16 0.14 124.81 0.14L124.81 0.14L124.81 0.14Q121.45 0.14 119.47 0L119.47 0L119.47 0Q118.75-0.04 118.19-0.56L118.19-0.56L118.19-0.56Q117.63-1.08 117.58-1.93L117.58-1.93L117.31-9.36L117.31-9.36Q117.27-10.44 116.84-10.57L116.84-10.57L116.84-10.57Q116.41-10.71 116.05-9.99L116.05-9.99L116.05-9.99Q113.67-5.76 110.11-0.54L110.11-0.54L110.11-0.54Q109.26 0.77 107.86 0.77L107.86 0.77L107.86 0.77Q106.47 0.77 105.57-0.54L105.57-0.54L105.57-0.54Q103.99-2.79 100.21-10.08L100.21-10.08L100.21-10.08Q99.99-10.53 99.70-10.62L99.70-10.62L99.70-10.62Q99.41-10.71 99.18-10.39L99.18-10.39L99.18-10.39Q98.95-10.08 98.95-9.36L98.95-9.36L98.73-1.93L98.73-1.93Q98.69-1.08 97.96-0.56L97.96-0.56L97.96-0.56Q97.24-0.04 96.30 0L96.30 0L91.84 0L91.84 0Q90.63-0.04 89.89-0.85L89.89-0.85L89.89-0.85Q89.14-1.67 89.01-2.70L89.01-2.70L89.01-2.70Q88.65-6.71 88.65-15.14L88.65-15.14L88.65-15.14Q88.65-23.58 88.88-27.54L88.88-27.54L88.88-27.54Q89.01-29.43 89.73-30.46L89.73-30.46L89.73-30.46Q90.45-31.50 92.29-31.50L92.29-31.50L92.29-31.50Q101.74-31.50 102.51-31.36L102.51-31.36L102.51-31.36Q103.27-31.23 104.94-29.16ZM175.68-13.05L175.68-13.05L175.63-7.20L175.63-7.20Q175.63-6.79 175.90-6.50L175.90-6.50L175.90-6.50Q176.17-6.21 176.62-6.21L176.62-6.21L176.62-6.21Q179.37-6.21 181.15-7.29L181.15-7.29L181.15-7.29Q182.92-8.37 182.92-10.69L182.92-10.69L182.92-10.69Q182.92-13.00 181.08-13.90L181.08-13.90L181.08-13.90Q179.59-14.63 177.84-14.63L177.84-14.63L177.84-14.63Q177.39-14.63 176.94-14.58L176.94-14.58L176.94-14.58Q175.68-14.49 175.68-13.05ZM175.63-25.43L175.63-25.43L175.68-21.73L175.68-21.73Q175.68-20.88 176.71-20.88L176.71-20.88L176.71-20.88Q181.26-20.88 181.26-23.45L181.26-23.45L181.26-23.45Q181.26-26.41 177.21-26.41L177.21-26.41L177.21-26.41Q176.94-26.41 176.71-26.41L176.71-26.41L176.71-26.41Q175.63-26.41 175.63-25.43ZM160.92-31.45L160.92-31.45L160.92-31.45Q166.50-31.63 174.87-31.63L174.87-31.63L174.87-31.63Q183.24-31.63 186.46-31.48L186.46-31.48L186.46-31.48Q189.67-31.32 192.15-28.98L192.15-28.98L192.15-28.98Q194.62-26.64 194.62-23.58L194.62-23.58L194.62-23.58Q194.62-19.84 191.38-18.09L191.38-18.09L191.38-18.09Q191.07-17.91 191.07-17.66L191.07-17.66L191.07-17.66Q191.07-17.41 191.38-17.32L191.38-17.32L191.38-17.32Q193.72-16.70 195.32-14.63L195.32-14.63L195.32-14.63Q196.92-12.55 196.92-9.72L196.92-9.72L196.92-9.72Q196.92-6.17 194.17-3.28L194.17-3.28L194.17-3.28Q191.43-0.40 185.76-0.16L185.76-0.16L185.76-0.16Q180.09 0.09 177.57 0.09L177.57 0.09L177.57 0.09Q175.05 0.09 160.74-0.04L160.74-0.04L160.74-0.04Q159.43-0.04 158.62-0.88L158.62-0.88L158.62-0.88Q157.81-1.71 157.68-2.79L157.68-2.79L157.68-2.79Q157.32-6.75 157.32-14.33L157.32-14.33L157.32-14.33Q157.32-21.91 157.63-27.27L157.63-27.27L157.63-27.27Q157.77-29.47 158.40-30.44L158.40-30.44L158.40-30.44Q159.03-31.41 160.92-31.45ZM214.56-11.25L214.56-11.25Q214.56-6.21 217.22-6.21L217.22-6.21L217.22-6.21Q219.87-6.21 219.87-11.25L219.87-11.25L219.87-11.25Q219.87-13.54 219.33-14.78L219.33-14.78L219.33-14.78Q218.79-16.02 217.22-16.02L217.22-16.02L217.22-16.02Q215.64-16.02 215.10-14.78L215.10-14.78L215.10-14.78Q214.56-13.54 214.56-11.25L214.56-11.25ZM234-11.25L234-11.25Q234 0.99 217.22 0.99L217.22 0.99L217.22 0.99Q200.43 0.99 200.43-11.25L200.43-11.25L200.43-11.25Q200.43-17.05 204.70-20.25L204.70-20.25L204.70-20.25Q208.98-23.45 217.22-23.45L217.22-23.45L217.22-23.45Q225.45-23.45 229.72-20.25L229.72-20.25L229.72-20.25Q234-17.05 234-11.25L234-11.25ZM252.09-20.93L252.09-20.93L252.05-9.95L252.05-9.95Q252.05-8.64 252.63-7.96L252.63-7.96L252.63-7.96Q253.22-7.29 254.14-7.29L254.14-7.29L254.14-7.29Q255.06-7.29 255.89-7.99L255.89-7.99L255.89-7.99Q256.73-8.69 257.09-9.90L257.09-9.90L257.09-12.64L257.09-12.64Q257.09-18.59 257.36-20.75L257.36-20.75L257.36-20.75Q257.49-21.51 258.12-22.09L258.12-22.09L258.12-22.09Q258.75-22.68 260.35-22.79L260.35-22.79L260.35-22.79Q261.94-22.90 263.52-22.90L263.52-22.90L263.52-22.90Q265.10-22.90 268.88-22.72L268.88-22.72L268.88-22.72Q269.96-22.68 270.59-22.09L270.59-22.09L270.59-22.09Q271.22-21.51 271.31-20.75L271.31-20.75L271.31-20.75Q271.62-17.82 271.62-11.77L271.62-11.77L271.62-11.77Q271.62-5.71 271.44-3.51L271.44-3.51L271.44-3.51Q271.26-1.30 270.76-0.63L270.76-0.63L270.76-0.63Q270.27 0.04 268.74 0.04L268.74 0.04L259.97 0.04L259.97 0.04Q258.44 0.04 257.92-0.63L257.92-0.63L257.92-0.63Q257.40-1.30 257.26-2.92L257.26-2.92L257.26-2.97L257.26-2.97Q252.63 0.58 247.86 0.58L247.86 0.58L247.86 0.58Q243.09 0.58 240.64-1.78L240.64-1.78L240.64-1.78Q238.19-4.14 238.12-8.46L238.12-8.46L238.12-8.46Q238.05-12.78 238.05-16.16L238.05-16.16L238.05-16.16Q238.05-19.53 238.09-20.70L238.09-20.70L238.09-20.70Q238.14-21.87 238.70-22.39L238.70-22.39L238.70-22.39Q239.27-22.90 240.89-22.90L240.89-22.90L249.53-22.99L249.53-22.99Q250.97-22.99 251.53-22.48L251.53-22.48L251.53-22.48Q252.09-21.96 252.09-20.93ZM278.91-10.39L278.91-16.38L278.91-16.38Q278.91-17.10 277.92-17.10L277.92-17.10L277.92-17.10Q276.17-17.10 275.85-18.27L275.85-18.27L275.85-18.27Q275.67-18.86 275.67-20.07L275.67-20.07L275.67-20.07Q275.67-21.29 276.01-21.80L276.01-21.80L276.01-21.80Q276.34-22.32 277.31-22.57L277.31-22.57L277.31-22.57Q278.28-22.81 279.07-23.42L279.07-23.42L279.07-23.42Q279.86-24.03 282.31-26.10L282.31-26.10L282.31-26.10Q284.76-28.17 285.73-28.80L285.73-28.80L285.73-28.80Q286.69-29.43 288.13-29.43L288.13-29.43L290.38-29.43L290.38-29.43Q291.96-29.43 292.50-29.05L292.50-29.05L292.50-29.05Q293.04-28.66 293.04-27.86L293.04-27.86L293.04-23.58L293.04-23.58Q293.04-22.63 293.85-22.63L293.85-22.63L298.66-22.63L298.66-22.63Q299.83-22.63 300.35-22.14L300.35-22.14L300.35-22.14Q300.87-21.64 300.87-19.87L300.87-19.87L300.87-19.87Q300.87-18.09 300.33-17.59L300.33-17.59L300.33-17.59Q299.79-17.10 298.71-17.10L298.71-17.10L294.03-17.10L294.03-17.10Q293.40-17.10 293.22-16.79L293.22-16.79L293.22-16.79Q293.04-16.47 293.04-15.88L293.04-15.88L293.04-10.48L293.04-10.48Q293.13-8.96 294.19-7.92L294.19-7.92L294.19-7.92Q295.25-6.88 297.18-6.88L297.18-6.88L297.18-6.88Q298.13-6.88 299.52-7.40L299.52-7.40L299.52-7.40Q300.91-7.92 301.41-7.92L301.41-7.92L301.41-7.92Q302.63-7.92 302.63-4.32L302.63-4.32L302.63-4.32Q302.63-1.71 301.23-1.17L301.23-1.17L301.23-1.17Q299.79-0.67 297.18-0.36L297.18-0.36L297.18-0.36Q294.57-0.04 291.96-0.04L291.96-0.04L291.96-0.04Q289.35-0.04 286.99-0.47L286.99-0.47L286.99-0.47Q284.63-0.90 282.69-1.98L282.69-1.98L282.69-1.98Q278.91-4.18 278.91-10.39L278.91-10.39ZM309.64-22.77L309.64-22.77L318.42-22.77L318.42-22.77Q319.95-22.77 320.47-22.09L320.47-22.09L320.47-22.09Q320.99-21.42 321.14-19.10L321.14-19.10L321.14-19.10Q321.30-16.79 321.30-10.64L321.30-10.64L321.30-10.64Q321.30-4.50 321.03-1.98L321.03-1.98L321.03-1.98Q320.89-1.21 320.26-0.63L320.26-0.63L320.26-0.63Q319.63-0.04 318.04 0.07L318.04 0.07L318.04 0.07Q316.44 0.18 314.24 0.18L314.24 0.18L314.24 0.18Q312.03 0.18 310.23 0.07L310.23 0.07L310.23 0.07Q308.43-0.04 307.80-0.63L307.80-0.63L307.80-0.63Q307.17-1.21 307.08-1.98L307.08-1.98L307.08-1.98Q306.76-4.91 306.76-10.96L306.76-10.96L306.76-10.96Q306.76-17.01 306.94-19.21L306.94-19.21L306.94-19.21Q307.13-21.42 307.62-22.09L307.62-22.09L307.62-22.09Q308.12-22.77 309.64-22.77ZM314.50-33.39L314.50-33.39L314.50-33.39Q317.48-33.39 318.98-32.20L318.98-32.20L318.98-32.20Q320.49-31.00 320.49-28.93L320.49-28.93L320.49-28.93Q320.49-24.07 314.01-24.07L314.01-24.07L314.01-24.07Q311.40-24.07 309.56-25.20L309.56-25.20L309.56-25.20Q307.71-26.32 307.71-28.57L307.71-28.57L307.71-28.57Q307.71-33.39 314.50-33.39ZM341.46-16.02L341.46-16.02L341.46-16.02Q338.81-16.02 338.81-11.63L338.81-11.63L338.81-11.63Q338.81-7.25 341.46-7.25L341.46-7.25L341.46-7.25Q342.50-7.25 343.33-7.94L343.33-7.94L343.33-7.94Q344.16-8.64 344.16-9.90L344.16-9.90L344.16-13.37L344.16-13.37Q344.16-14.63 343.33-15.32L343.33-15.32L343.33-15.32Q342.50-16.02 341.46-16.02ZM358.38-20.75L358.38-20.75L358.47-6.03L358.47-6.03Q358.47-1.53 358.33 4.86L358.33 4.86L358.33 4.86Q358.29 6.34 357.77 7.06L357.77 7.06L357.77 7.06Q357.25 7.79 355.77 7.79L355.77 7.79L347.13 7.79L347.13 7.79Q345.60 7.79 345.11 7.20L345.11 7.20L345.11 7.20Q344.30 6.17 344.30-1.98L344.30-1.98L344.30-1.98Q344.30-2.25 344.16-2.41L344.16-2.41L344.16-2.41Q344.02-2.56 343.75-2.34L343.75-2.34L343.75-2.34Q340.20 0.99 335.90 0.99L335.90 0.99L335.90 0.99Q331.61 0.99 328.70-1.89L328.70-1.89L328.70-1.89Q325.80-4.77 325.80-10.98L325.80-10.98L325.80-10.98Q325.80-14.40 326.83-16.94L326.83-16.94L326.83-16.94Q327.87-19.48 329.67-20.84L329.67-20.84L329.67-20.84Q333.09-23.45 337.77-23.45L337.77-23.45L337.77-23.45Q342.45-23.45 344.83-20.34L344.83-20.34L344.83-20.34Q344.88-21.51 345.69-22.14L345.69-22.14L345.69-22.14Q346.50-22.77 347.49-22.86L347.49-22.86L347.49-22.86Q348.48-22.95 351.09-22.95L351.09-22.95L355.86-22.86L355.86-22.86Q356.71-22.86 357.55-22.25L357.55-22.25L357.55-22.25Q358.38-21.64 358.38-20.75ZM377.46-20.93L377.46-20.93L377.42-9.95L377.42-9.95Q377.42-8.64 378-7.96L378-7.96L378-7.96Q378.59-7.29 379.51-7.29L379.51-7.29L379.51-7.29Q380.43-7.29 381.26-7.99L381.26-7.99L381.26-7.99Q382.10-8.69 382.46-9.90L382.46-9.90L382.46-12.64L382.46-12.64Q382.46-18.59 382.73-20.75L382.73-20.75L382.73-20.75Q382.86-21.51 383.49-22.09L383.49-22.09L383.49-22.09Q384.12-22.68 385.72-22.79L385.72-22.79L385.72-22.79Q387.31-22.90 388.89-22.90L388.89-22.90L388.89-22.90Q390.47-22.90 394.25-22.72L394.25-22.72L394.25-22.72Q395.33-22.68 395.96-22.09L395.96-22.09L395.96-22.09Q396.59-21.51 396.68-20.75L396.68-20.75L396.68-20.75Q396.99-17.82 396.99-11.77L396.99-11.77L396.99-11.77Q396.99-5.71 396.81-3.51L396.81-3.51L396.81-3.51Q396.63-1.30 396.13-0.63L396.13-0.63L396.13-0.63Q395.64 0.04 394.11 0.04L394.11 0.04L385.34 0.04L385.34 0.04Q383.81 0.04 383.29-0.63L383.29-0.63L383.29-0.63Q382.77-1.30 382.63-2.92L382.63-2.92L382.63-2.97L382.63-2.97Q378 0.58 373.23 0.58L373.23 0.58L373.23 0.58Q368.46 0.58 366.01-1.78L366.01-1.78L366.01-1.78Q363.56-4.14 363.49-8.46L363.49-8.46L363.49-8.46Q363.42-12.78 363.42-16.16L363.42-16.16L363.42-16.16Q363.42-19.53 363.47-20.70L363.47-20.70L363.47-20.70Q363.51-21.87 364.07-22.39L364.07-22.39L364.07-22.39Q364.63-22.90 366.25-22.90L366.25-22.90L374.90-22.99L374.90-22.99Q376.34-22.99 376.90-22.48L376.90-22.48L376.90-22.48Q377.46-21.96 377.46-20.93ZM408.60-21.53L408.60-21.53L408.60-21.53Q410.67-22.54 412.85-22.99L412.85-22.99L412.85-22.99Q415.03-23.45 418.25-23.45L418.25-23.45L418.25-23.45Q421.47-23.45 424.39-22.66L424.39-22.66L424.39-22.66Q427.32-21.87 428.76-20.52L428.76-20.52L428.76-20.52Q431.28-18.04 431.28-14.71L431.28-14.71L431.28-14.71Q431.28-9.49 422.46-9.49L422.46-9.49L422.46-9.49Q419.36-9.49 416.02-10.08L416.02-10.08L416.02-10.08Q416.16-7.11 417.13-5.89L417.13-5.89L417.13-5.89Q418.09-4.68 420.57-4.68L420.57-4.68L420.57-4.68Q423.05-4.68 424.67-5.22L424.67-5.22L424.67-5.22Q426.28-5.76 427.27-6.32L427.27-6.32L427.27-6.32Q428.26-6.88 428.96-6.88L428.96-6.88L428.96-6.88Q429.66-6.88 430.15-6.25L430.15-6.25L430.15-6.25Q430.92-5.44 430.92-4.03L430.92-4.03L430.92-4.03Q430.92-2.61 430.36-2.09L430.36-2.09L430.36-2.09Q429.80-1.57 428.58-1.08L428.58-1.08L428.58-1.08Q424.31 0.72 416.43 0.72L416.43 0.72L416.43 0.72Q409.90 0.72 405.70-2.41L405.70-2.41L405.70-2.41Q401.49-5.54 401.49-10.84L401.49-10.84L401.49-10.84Q401.49-13.41 402.44-15.55L402.44-15.55L402.44-15.55Q403.38-17.68 404.95-19.10L404.95-19.10L404.95-19.10Q406.53-20.52 408.60-21.53ZM419.04-18.31L419.04-18.31L419.04-18.31Q416.30-18.31 416.07-13.86L416.07-13.86L416.07-13.86Q418.23-13.68 418.32-13.68L418.32-13.68L418.32-13.68Q421.29-13.68 421.29-15.66L421.29-15.66L421.29-15.66Q421.29-18.31 419.04-18.31Z" fill="#b8b8b8"></path></g></g><style>text {
  font-size: 64px;
  font-family: Arial Black;
  dominant-baseline: central;
  text-anchor: middle;
}</style></svg>