<svg width="90.6009765625px" height="80.2px" xmlns="http://www.w3.org/2000/svg" viewBox="162.19951171875 8.400000000000006 175.6009765625 141.2" style="background: rgba(0, 0, 0, 0);" preserveAspectRatio="xMidYMid"><defs>
  <filter id="editing-scratch" x="-100%" y="-100%" width="300%" height="300%">
    <!-- COLOR -->
    <feFlood flood-color="#000000" flood-opacity="0.75" result="COLOR-blu"></feFlood>
    <feFlood flood-color="#666" flood-opacity="0.4" result="COLOR-red"></feFlood>
    <!-- COLOR END -->

    <!-- Texture -->
    <feTurbulence baseFrequency=".05" type="fractalNoise" numOctaves="3" seed="0" result="Texture_10"></feTurbulence>
    <feColorMatrix type="matrix" values="0 0 0 0 0,
    0 0 0 0 0,
    0 0 0 0 0,
    0 0 0 -2.1 1.1" in="Texture_10" result="Texture_20"></feColorMatrix>

    <feColorMatrix result="Texture_30" type="matrix" values="0 0 0 0 0,
    0 0 0 0 0,
    0 0 0 0 0,
    0 0 0 -1.7 1.8" in="Texture_10"></feColorMatrix>
    <!-- Texture -->

    <!-- FILL -->
    <feOffset dx="-3" dy="4" in="SourceAlpha" result="FILL_10"></feOffset>
    <feDisplacementMap scale="17" in="FILL_10" in2="Texture_10" result="FILL_20"></feDisplacementMap>
    <feComposite operator="in" in="Texture_30" in2="FILL_20" result="FILL_40"></feComposite>
    <feComposite operator="in" in="COLOR-blu" in2="FILL_40" result="FILL_50"></feComposite>
    <!-- FILL END-->

    <!-- OUTLINE -->
    <feMorphology operator="dilate" radius="3" in="SourceGraphic" result="OUTLINE_10"></feMorphology>
    <feComposite operator="out" in="OUTLINE_10" in2="SourceGraphic" result="OUTLINE_20"></feComposite>
    <feDisplacementMap scale="7" in="OUTLINE_20" in2="Texture_10" result="OUTLINE_30"></feDisplacementMap>
    <feComposite operator="arithmetic" k2="-1" k3="1" in="Texture_20" in2="OUTLINE_30" result="OUTLINE_40"></feComposite>
    <!-- OUTLINE END-->

    <!-- BEVEL OUTLINE -->
    <feConvolveMatrix order="8,8" divisor="1" kernelMatrix="1 0 0 0 0 0 0 0 0 1 0 0 0 0 0 0 0 0 1 0 0 0 0 0 0 0 0 1 0 0 0 0 0 0 0 0 1 0 0 0 0 0 0 0 0 1 0 0 0 0 0 0 0 0 1 0 0 0 0 0 0 0 0 1 " in="SourceGraphic" result="BEVEL_10"></feConvolveMatrix>
    <feMorphology operator="dilate" radius="2" in="BEVEL_10" result="BEVEL_20"></feMorphology>
    <feComposite operator="out" in="BEVEL_20" in2="BEVEL_10" result="BEVEL_30"></feComposite>
    <feDisplacementMap scale="7" in="BEVEL_30" in2="Texture_10" result="BEVEL_40"></feDisplacementMap>
    <feComposite operator="arithmetic" k2="-1" k3="1" in="Texture_20" in2="BEVEL_40" result="BEVEL_50"></feComposite>
    <feOffset dx="-7" dy="-7" in="BEVEL_50" result="BEVEL_60"></feOffset>
    <feComposite operator="out" in="BEVEL_60" in2="OUTLINE_10" result="BEVEL_70"></feComposite>
    <!-- BEVEL OUTLINE END -->

    <!-- BEVEL FILL -->
    <feOffset dx="-9" dy="-9" in="BEVEL_10" result="BEVEL-FILL_10"></feOffset>
    <feComposite operator="out" in="BEVEL-FILL_10" in2="OUTLINE_10" result="BEVEL-FILL_20"></feComposite>
    <feDisplacementMap scale="17" in="BEVEL-FILL_20" in2="Texture_10" result="BEVEL-FILL_30"></feDisplacementMap>
    <feComposite operator="in" in="COLOR-red" in2="BEVEL-FILL_30" result="BEVEL-FILL_50"></feComposite> <!-- -->
    <!-- BEVEL FILL END-->

    <feMerge result="merge2">
     <feMergeNode in="BEVEL-FILL_50"></feMergeNode>
     <feMergeNode in="BEVEL_70"></feMergeNode>
     <feMergeNode in="FILL_50"></feMergeNode>
      <feMergeNode in="OUTLINE_40"></feMergeNode>
    </feMerge>
  </filter>
</defs>
<g filter="url(#editing-scratch)"><g transform="translate(191.92375564575195, 100.44000053405762)"><path d="M31.25 22.13L30.31 22.13L28.63 22.19L27.19 22.19L26.25-5.13L26.25-5.13Q23.81-2.81 18.88-1.25L18.88-1.25L18.88-1.25Q14.38 0.19 10.81 0.19L10.81 0.19L10.81 0.19Q7.94 0.19 6.03-0.63L6.03-0.63L6.03-0.63Q4.13-1.44 3.22-2.41L3.22-2.41L3.22-2.41Q2.31-3.38 2.28-4.44L2.28-4.44L2.28-4.44Q2.25-5.50 2.25-6.13L2.25-6.13L2.25-6.13Q2.25-9.75 4-13.19L4-13.19L4-13.19Q5.75-16.63 9-19.38L9-19.38L9-19.38Q12.25-22.13 16.16-23.56L16.16-23.56L16.16-23.56Q20.06-25 23.75-25L23.75-25L24.63-25L24.63-25Q26.44-25 27.94-23.69L27.94-23.69L27.94-23.69Q29.44-22.38 30.44-20.75L30.44-20.75L30.44-20.75Q30.44-9.88 30.50 0.69L30.50 0.69L30.50 0.69Q30.56 11.25 31.25 22.13L31.25 22.13ZM24.63-12.75L25-17.88L25-17.88Q25-20.81 23.75-20.81L23.75-20.81L23.75-20.81Q17.44-20.81 12.38-17.13L12.38-17.13L12.38-17.13Q7-13.06 7-7L7-7L7-7Q7-4 10.38-3.88L10.38-3.88L10.38-3.88Q11.31-3.88 12.84-3.88L12.84-3.88L12.84-3.88Q14.38-3.88 16.56-4.28L16.56-4.28L16.56-4.28Q18.75-4.69 20.50-5.75L20.50-5.75L20.50-5.75Q24.63-8.06 24.63-12.75L24.63-12.75ZM41.50 0.25L41.50 0.25L41.50 0.25Q35.25 0.25 35.25-2.50L35.25-2.50L35.25-2.50Q35.25-4.25 38-7.06L38-7.06L38-7.06Q40.75-9.88 42.81-11.66L42.81-11.66L42.81-11.66Q44.88-13.44 46.75-15.13L46.75-15.13L46.75-15.13Q51.19-19.19 54-22.63L54-22.63L54-22.63Q53.44-22.63 52.31-22.63L52.31-22.63L52.31-22.63Q51.19-22.63 49.03-22.47L49.03-22.47L49.03-22.47Q46.88-22.31 44.50-22.06L44.50-22.06L44.50-22.06Q38.06-21.38 36.06-21.38L36.06-21.38L36.06-21.38Q34.06-21.38 34.06-22.25L34.06-22.25L34.06-22.25Q34.06-23.31 35.28-24.19L35.28-24.19L35.28-24.19Q36.50-25.06 37.03-25.06L37.03-25.06L37.03-25.06Q37.56-25.06 37.84-25.13L37.84-25.13L37.84-25.13Q38.13-25.19 38.81-25.28L38.81-25.28L38.81-25.28Q39.50-25.38 40.78-25.53L40.78-25.53L40.78-25.53Q42.06-25.69 44.25-25.88L44.25-25.88L44.25-25.88Q48.56-26.31 57.75-27.06L57.75-27.06L57.75-27.06Q60.75-26.69 60.75-24.88L60.75-24.88L60.75-24.88Q60.75-22.56 56.38-18.13L56.38-18.13L56.38-18.13Q52.50-14.25 48.09-10.31L48.09-10.31L48.09-10.31Q43.69-6.38 41.94-4.50L41.94-4.50L41.94-4.50Q44.38-4.31 46.19-4.31L46.19-4.31L56.44-4.75L56.44-4.75Q58.81-4.75 60.75-4.53L60.75-4.53L60.75-4.53Q62.69-4.31 63.13-4.13L63.13-4.13L63.13-4.13Q64.13-3.56 64.13-2L64.13-2L64.13-2Q64.13-1.38 63.88-0.63L63.88-0.63L63.88-0.63Q62.31-0.81 60.63-0.81L60.63-0.81L60.63-0.81Q58.94-0.81 56.19-0.63L56.19-0.63L56.19-0.63Q53.44-0.44 49.56-0.13L49.56-0.13L49.56-0.13Q44.25 0.25 41.50 0.25ZM71.44-1L71.44-1L71.44-1Q68.88 0.06 68.03 0.06L68.03 0.06L68.03 0.06Q67.19 0.06 66.88-0.13L66.88-0.13L66.88-0.13Q66.56-0.31 66.19-1L66.19-1L66.19-1Q66.19-3.06 66.34-6.19L66.34-6.19L66.34-6.19Q66.50-9.31 66.63-12.88L66.63-12.88L66.63-12.88Q66.75-16.44 66.75-20.06L66.75-20.06L66.75-20.06Q66.75-23.69 66.38-26.69L66.38-26.69L66.38-26.69Q66.38-28.69 69.06-28.69L69.06-28.69L69.06-28.69Q69.69-28.69 70.03-26.44L70.03-26.44L70.03-26.44Q70.38-24.19 70.53-22.94L70.53-22.94L70.53-22.94Q70.69-21.69 70.81-21.13L70.81-21.13L70.81-21.13Q72.44-24.06 77.25-25.75L77.25-25.75L77.25-25.75Q79.81-26.56 82.06-26.56L82.06-26.56L82.06-26.56Q84.31-26.56 86.03-26.03L86.03-26.03L86.03-26.03Q87.75-25.50 88.97-24.09L88.97-24.09L88.97-24.09Q90.19-22.69 90.19-20.38L90.19-20.38L90.19-20.38Q91.81-23.44 97.50-25.88L97.50-25.88L97.50-25.88Q102.69-28.19 106.81-28.19L106.81-28.19L106.81-28.19Q112.75-28.19 112.63-23.69L112.63-23.69L113.94-0.44L113.94-0.44Q113.94-0.13 112.13 0L112.13 0L112.13 0Q108.63 0.25 108.63-0.63L108.63-0.63L108.63-0.63Q108.56-1.88 108.56-3.13L108.56-3.13L108.88-13.19L108.88-13.19Q108.88-20.25 107.50-24.38L107.50-24.38L107.50-24.38Q103.38-24.06 101.16-23.03L101.16-23.03L101.16-23.03Q98.94-22 97.25-20.47L97.25-20.47L97.25-20.47Q95.56-18.94 94.25-16.38L94.25-16.38L94.25-16.38Q91.31-10.63 91.31-1.13L91.31-1.13L91.31-1.13Q90.94 0.19 88.88 0.19L88.88 0.19L88.88 0.19Q87.50 0.19 86.63-0.28L86.63-0.28L86.63-0.28Q85.75-0.75 85.94-1.13L85.94-1.13L85.94-1.13Q87.13-7.75 87.13-11.44L87.13-11.44L87.13-11.44Q87.13-14.38 86.53-17.03L86.53-17.03L86.53-17.03Q85.94-19.69 85.06-23.13L85.06-23.13L85.06-23.13Q76.06-23.13 72.94-15.94L72.94-15.94L72.94-15.94Q71.56-12.75 71.41-9.97L71.41-9.97L71.41-9.97Q71.25-7.19 71.25-5.22L71.25-5.22L71.25-5.22Q71.25-3.25 71.44-1Z" fill="#ffffff"></path></g></g><style>text {
  font-size: 64px;
  font-family: Arial Black;
  dominant-baseline: central;
  text-anchor: middle;
}</style></svg>