<svg width="110px" height="50px" xmlns="http://www.w3.org/2000/svg" viewBox="2.0620239257812614 -51.099999999999994 495.8759521484375 252.2" style="background: rgba(0, 0, 0, 0);" preserveAspectRatio="xMidYMid"><defs><filter id="editing-raise" x="-100%" y="-100%" width="300%" height="300%"><feFlood flood-color="#f7f7f7" result="flood-surface"></feFlood><feFlood flood-color="#b8b8b8" result="flood-extrude"></feFlood><feMorphology operator="erode" in="SourceAlpha" radius="1" result="erode"></feMorphology><feConvolveMatrix in="erode" result="shadow" order="11,8" divisor="1" kernelMatrix="0 0 0 1 1 1 1 1 0 0 0 0 0 1 0 0 0 0 0 1 0 0 0 0 1 0 0 0 0 0 1 0 0 0 0 1 0 0 0 0 0 1 0 0 0 0 1 0 0 0 0 0 1 0 0 0 0 0 1 0 0 0 1 0 0 0 0 0 0 1 1 0 1 1 0 0 0 0 0 0 0 0 1 0 0 0 0 0"></feConvolveMatrix><feOffset dx="0" dy="4" in="shadow" result="offset"></feOffset><feGaussianBlur in="offset" stdDeviation="0.2" result="blur"></feGaussianBlur><feComposite operator="in" in="flood-extrude" in2="blur" result="extrude"></feComposite><feMorphology operator="erode" in="SourceAlpha" radius="1" result="erode2"></feMorphology><feConvolveMatrix in="erode2" result="out" order="4,4" divisor="1" kernelMatrix="0 1 1 0 1 0 0 1 1 0 0 1 0 1 1 0 "></feConvolveMatrix><feComposite operator="in" in="flood-surface" in2="out" result="text"></feComposite><feMerge><feMergeNode in="extrude"></feMergeNode><feMergeNode in="text"></feMergeNode></feMerge></filter></defs><g filter="url(#editing-raise)"><g transform="translate(75.23340606689453, 133.65999794006348)"><path d="M85.54-6.02L117.60-6.02L117.60 0L67.06 0L67.06 17.08L50.54 17.08L50.54 0L0 0L0-6.02L31.92-6.02L31.92-6.02Q20.58-12.74 13.93-24.15L13.93-24.15L13.93-24.15Q7.28-35.56 7.28-49.70L7.28-49.70L7.28-49.70Q7.28-71.26 22.12-85.75L22.12-85.75L22.12-85.75Q36.96-100.24 58.80-100.24L58.80-100.24L58.80-100.24Q80.64-100.24 95.48-85.75L95.48-85.75L95.48-85.75Q110.32-71.26 110.32-49.70L110.32-49.70L110.32-49.70Q110.32-35.70 103.67-24.15L103.67-24.15L103.67-24.15Q97.02-12.60 85.54-6.02L85.54-6.02ZM50.54-15.12L50.54-30.80L67.06-30.80L67.06-15.12L67.06-15.12Q78.68-17.92 86.03-27.51L86.03-27.51L86.03-27.51Q93.38-37.10 93.38-50.75L93.38-50.75L93.38-50.75Q93.38-64.40 83.37-74.76L83.37-74.76L83.37-74.76Q73.36-85.12 58.80-85.12L58.80-85.12L58.80-85.12Q44.24-85.12 34.23-74.76L34.23-74.76L34.23-74.76Q24.22-64.40 24.22-50.75L24.22-50.75L24.22-50.75Q24.22-37.10 31.57-27.51L31.57-27.51L31.57-27.51Q38.92-17.92 50.54-15.12L50.54-15.12ZM110.60-6.02L124.18-6.02L124.18-12.74L181.16-82.32L181.16-82.74L126.00-82.74L126.00-97.86L204.12-97.86L204.12-84.98L147.28-15.68L147.28-15.26L204.96-15.26L204.96-6.02L218.54-6.02L218.54 0L110.60 0L110.60-6.02ZM336.14-6.02L349.72-6.02L349.72 0L319.62 0L319.62-76.44L285.46-8.54L276.22-8.54L242.20-76.44L242.20 0L212.10 0L212.10-6.02L225.68-6.02L225.68-97.86L251.44-97.86L280.98-36.40L310.52-97.86L336.14-97.86L336.14-6.02Z"></path></g></g><style>text {
  font-size: 64px;
  font-family: Arial Black;
  dominant-baseline: central;
  text-anchor: middle;
}</style></svg>